HIERARCHY
ROOT Hips
{
	OFFSET 0.000000 0.000000 0.000000
	CHANNELS 6 Xposition Yposition Zposition Zrotation Yrotation Xrotation 
	JOINT LHipJoint
	{
		OFFSET 0.000000 0.000000 0.000000
		CHANNELS 3 Zrotation Yrotation Xrotation
		JOINT LeftUpLeg
		{
			OFFSET 1.363060 -1.794630 0.839290
			CHANNELS 3 Zrotation Yrotation Xrotation
			JOINT LeftLeg
			{
				OFFSET 2.448110 -6.726130 0.000000
				CHANNELS 3 Zrotation Yrotation Xrotation
				JOINT LeftFoot
				{
					OFFSET 2.562200 -7.039590 0.000000
					CHANNELS 3 Zrotation Yrotation Xrotation
					JOINT LeftToeBase
					{
						OFFSET 0.157640 -0.433110 2.322550
						CHANNELS 3 Zrotation Yrotation Xrotation
						End Site
						{
							OFFSET 0.000000 0.000000 0.000000
						}
					}
				}
			}
		}
	}
	JOINT RHipJoint
	{
		OFFSET 0.000000 0.000000 0.000000
		CHANNELS 3 Zrotation Yrotation Xrotation
		JOINT RightUpLeg
		{
			OFFSET -1.305520 -1.794630 0.839290
			CHANNELS 3 Zrotation Yrotation Xrotation
			JOINT RightLeg
			{
				OFFSET -2.542530 -6.985550 0.000000
				CHANNELS 3 Zrotation Yrotation Xrotation
				JOINT RightFoot
				{
					OFFSET -2.568260 -7.056230 0.000000
					CHANNELS 3 Zrotation Yrotation Xrotation
					JOINT RightToeBase
					{
						OFFSET -0.164730 -0.452590 2.363150
						CHANNELS 3 Zrotation Yrotation Xrotation
						End Site
						{
							OFFSET 0.000000 0.000000 0.000000
						}
					}
				}
			}
		}
	}
	JOINT LowerBack
	{
		OFFSET 0.000000 0.000000 0.000000
		CHANNELS 3 Zrotation Yrotation Xrotation
		JOINT Spine
		{
			OFFSET 0.028270 2.035590 -0.193380
			CHANNELS 3 Zrotation Yrotation Xrotation
			JOINT Spine1
			{
				OFFSET 0.056720 2.048850 -0.042750
				CHANNELS 3 Zrotation Yrotation Xrotation
				JOINT Neck
				{
					OFFSET 0.000000 0.000000 0.000000
					CHANNELS 3 Zrotation Yrotation Xrotation
					JOINT Neck1
					{
						OFFSET -0.054170 1.746240 0.172020
						CHANNELS 3 Zrotation Yrotation Xrotation
						JOINT Head
						{
							OFFSET 0.104070 1.761360 -0.123970
							CHANNELS 3 Zrotation Yrotation Xrotation
							End Site
							{
								OFFSET 0.000000 0.000000 0.000000
							}
						}
					}
				}
				JOINT LeftShoulder
				{
					OFFSET 0.000000 0.000000 0.000000
					CHANNELS 3 Zrotation Yrotation Xrotation
					JOINT LeftArm
					{
						OFFSET 3.362410 1.200890 -0.311210
						CHANNELS 3 Zrotation Yrotation Xrotation
						JOINT LeftForeArm
						{
							OFFSET 4.983000 -0.000000 -0.000000
							CHANNELS 3 Zrotation Yrotation Xrotation
							JOINT LeftHand
							{
								OFFSET 3.483560 -0.000000 -0.000000
								CHANNELS 3 Zrotation Yrotation Xrotation
								JOINT LeftFingerBase
								{
									OFFSET 0.000000 0.000000 0.000000
									CHANNELS 3 Zrotation Yrotation Xrotation
									JOINT LeftHandIndex1
									{
										OFFSET 0.715260 -0.000000 -0.000000
										CHANNELS 3 Zrotation Yrotation Xrotation
										End Site
										{
											OFFSET 0.000000 0.000000 0.000000
										}
									}
								}
								JOINT LThumb
								{
									OFFSET 0.000000 0.000000 0.000000
									CHANNELS 3 Zrotation Yrotation Xrotation
									End Site
									{
										OFFSET 0.000000 0.000000 0.000000
									}
								}
							}
						}
					}
				}
				JOINT RightShoulder
				{
					OFFSET 0.000000 0.000000 0.000000
					CHANNELS 3 Zrotation Yrotation Xrotation
					JOINT RightArm
					{
						OFFSET -3.136600 1.374050 -0.404650
						CHANNELS 3 Zrotation Yrotation Xrotation
						JOINT RightForeArm
						{
							OFFSET -5.241900 -0.000000 -0.000000
							CHANNELS 3 Zrotation Yrotation Xrotation
							JOINT RightHand
							{
								OFFSET -3.444170 -0.000000 -0.000000
								CHANNELS 3 Zrotation Yrotation Xrotation
								JOINT RightFingerBase
								{
									OFFSET 0.000000 0.000000 0.000000
									CHANNELS 3 Zrotation Yrotation Xrotation
									JOINT RightHandIndex1
									{
										OFFSET -0.622530 -0.000000 -0.000000
										CHANNELS 3 Zrotation Yrotation Xrotation
										End Site
										{
											OFFSET 0.000000 0.000000 0.000000
										}
									}
								}
								JOINT RThumb
								{
									OFFSET 0.000000 0.000000 0.000000
									CHANNELS 3 Zrotation Yrotation Xrotation
									End Site
									{
										OFFSET 0.000000 0.000000 0.000000
									}
								}
							}
						}
					}
				}
			}
		}
	}
}
MOTION
Frames: 9
Frame Time: 0.008333
6.876980 18.082991 -3.119441 0.357090 3.256062 2.656186 -2.336238 -4.108662 -1.606733 -5.657813 8.530878 -15.828053 1.419610 9.781331 26.001073 1.133975 -4.662784 -0.607181 1.164800 6.851300 19.275500 -1.095546 3.330333 -4.435810 21.823371 4.405503 9.908515 0.879645 -1.324405 0.480259 0.322239 -20.024414 -32.188728 -1.567500 -7.900200 22.411500 4.964802 0.695339 5.873062 1.296274 0.888493 -3.412522 -3.969675 0.773588 2.151045 -3.897345 -3.259492 -3.483692 2.701315 -4.450900 22.056187 0.857000 -1.975900 4.742800 -0.557184 -8.534248 2.626409 -80.840817 -1.447757 31.560448 15.761091 -21.217134 -2.905347 0.623099 0.218681 -11.267127 9.759471 -12.968783 -2.078800 -7.125000 0.000000 0.000000 -12.533200 16.921900 8.551100 0.544772 9.350629 3.228860 80.109063 -6.078590 16.572563 -14.487350 17.940147 -3.512654 1.980771 0.730978 13.901167 -6.482960 -34.681500 4.819300 7.125000 0.000000 0.000000 31.173500 -63.308600 -14.560800 
6.856524 18.078643 -3.104518 0.208923 3.262266 2.571822 -2.330747 -4.100713 -1.594397 -5.566246 8.326108 -15.599353 1.408102 9.722124 25.838026 1.197504 -5.187540 0.001790 1.186400 6.912400 19.456200 -1.124484 3.320944 -4.458415 22.083455 3.871030 9.861183 0.884603 -1.381542 0.596395 0.455138 -20.341836 -31.577165 -1.293600 -7.206300 20.327900 5.082348 0.567934 5.725639 1.420023 0.716841 -3.371417 -3.830170 0.692781 2.284619 -4.139743 -3.295529 -4.153560 2.613052 -4.456374 23.325409 0.784500 -1.974000 4.707400 -0.561959 -8.511332 2.613635 -81.068613 -1.477636 31.489398 15.413487 -20.781680 -2.809507 0.651747 0.253824 -11.726430 10.663118 -14.060957 -2.472200 -7.125000 0.000000 0.000000 -11.904500 15.760800 8.409300 0.612977 9.335977 3.277017 79.639663 -6.000428 17.566275 -12.586366 15.829462 -3.058567 1.961841 1.044593 13.291806 -1.557390 -36.515465 1.970800 7.125000 0.000000 0.000000 38.976700 -63.748700 -19.130000 
6.839724 18.075580 -3.085445 0.018384 3.224704 2.517137 -2.324764 -4.091186 -1.574896 -5.437292 8.214413 -15.321844 1.363592 9.597018 25.477079 1.234034 -5.512576 0.578329 1.105900 6.681700 18.775600 -1.154140 3.302751 -4.478416 22.309405 3.178782 9.681309 0.881299 -1.463004 0.767545 0.569708 -20.471163 -30.781782 -0.984900 -6.316800 17.706300 5.356969 0.564576 5.581429 1.471931 0.701053 -3.375411 -3.884213 0.686726 2.352299 -4.200185 -3.415118 -4.638307 2.521592 -4.577324 24.085693 0.750000 -2.034100 4.992400 -0.566222 -8.487876 2.604650 -81.103699 -1.391892 31.687940 15.129269 -20.421910 -2.727223 0.666813 0.272928 -12.290216 11.038418 -14.719492 -2.680300 -7.125000 0.000000 0.000000 -11.647500 15.071800 8.396200 0.657927 9.319245 3.307645 79.533323 -6.271618 18.284904 -11.004589 14.068592 -2.756683 1.869292 1.350683 12.582421 3.785410 -37.978258 -1.464500 7.125000 0.000000 0.000000 46.777900 -63.599000 -23.595100 
6.824703 18.071231 -3.068053 -0.064735 3.112432 2.511098 -2.336235 -4.079641 -1.551743 -5.397496 7.872794 -14.904431 1.263602 9.397241 24.852136 1.235053 -5.535079 0.973105 1.223200 7.014700 19.759000 -1.178188 3.290125 -4.501692 22.391849 2.568368 9.471878 0.876965 -1.546370 0.948063 0.703249 -20.692921 -29.906171 -0.644300 -5.135000 14.293900 5.468252 0.606749 5.396607 1.500521 0.740115 -3.372735 -3.917187 0.708224 2.443066 -4.154940 -3.492309 -5.030320 2.481651 -4.653529 24.460846 0.717900 -2.066500 5.157700 -0.540329 -8.485349 2.599875 -81.154487 -1.381541 31.562441 15.065725 -20.334276 -2.681070 0.628489 0.258010 -12.006663 10.491432 -13.486606 -2.338300 -7.125000 0.000000 0.000000 -12.024200 16.336100 8.344400 0.601990 9.333558 3.318189 79.319759 -5.568185 16.422864 -13.718412 17.291334 -3.637830 1.523917 1.756427 5.770061 7.693185 -41.151199 -4.391100 7.125000 0.000000 0.000000 55.818200 -64.663800 -30.836400 
6.808891 18.067970 -3.050759 -0.212302 3.053405 2.480753 -2.344885 -4.066193 -1.530378 -5.296347 7.542385 -14.489560 1.174461 9.203138 24.258257 1.243233 -5.610801 1.408476 1.277400 7.162800 20.198700 -1.200595 3.274591 -4.518201 22.582115 2.037220 9.322284 0.874116 -1.620721 1.108207 0.795521 -20.819331 -29.222202 -0.431900 -4.217400 11.689100 5.650235 0.604628 5.223935 1.552811 0.722443 -3.377843 -3.937993 0.701289 2.517221 -4.182285 -3.558094 -5.439819 2.429917 -4.711849 25.091284 0.692700 -2.092800 5.395800 -0.529040 -8.474225 2.593959 -81.226462 -1.316984 31.555541 14.885072 -20.101171 -2.618439 0.619674 0.264206 -12.141009 10.545096 -13.302296 -2.322900 -7.125000 0.000000 0.000000 -11.989000 16.509200 8.272700 0.595789 9.333336 3.337740 79.141196 -5.388351 16.038678 -14.332003 18.050406 -3.913463 1.355758 1.916280 2.933028 9.704050 -42.811826 -6.033200 7.125000 0.000000 0.000000 60.673800 -65.065500 -34.941300 
6.793969 18.065006 -3.033267 -0.353949 3.003163 2.452035 -2.360683 -4.050156 -1.506499 -5.200517 7.126208 -13.992531 1.063439 8.968394 23.533202 1.238921 -5.567037 1.762094 1.333800 7.313000 20.646000 -1.217054 3.259260 -4.531413 22.765668 1.586743 9.202611 0.870855 -1.686438 1.249787 0.860487 -20.877531 -28.657680 -0.288900 -3.456700 9.552900 5.823649 0.608419 5.047255 1.598328 0.711411 -3.392479 -3.966163 0.696576 2.574678 -4.192803 -3.626713 -5.823804 2.399347 -4.781571 25.780780 0.669300 -2.121700 5.646800 -0.515823 -8.465036 2.590595 -81.291391 -1.225842 31.562068 14.703963 -19.866063 -2.556245 0.610400 0.270679 -12.253592 10.611252 -13.102532 -2.307500 -7.125000 0.000000 0.000000 -11.945500 16.696300 8.191500 0.583685 9.335504 3.352285 79.012239 -5.279423 15.702865 -15.161711 19.032440 -4.222964 1.264629 1.977784 0.739297 9.754173 -43.891045 -6.197100 7.125000 0.000000 0.000000 62.721900 -65.621100 -37.258000 
6.779738 18.062337 -3.015281 -0.483419 2.963958 2.414305 -2.384405 -4.031096 -1.479400 -5.120266 6.614705 -13.400036 0.933936 8.696703 22.688046 1.224138 -5.421022 2.009497 1.386400 7.449900 21.055300 -1.226414 3.245254 -4.542158 22.936630 1.227645 9.136623 0.867639 -1.737996 1.358996 0.897255 -20.866146 -28.240057 -0.206800 -2.927700 8.077400 5.974512 0.608207 4.874291 1.641297 0.695268 -3.412435 -3.986294 0.688213 2.617825 -4.201724 -3.694651 -6.197629 2.381611 -4.854766 26.547402 0.647700 -2.150500 5.918800 -0.502123 -8.457522 2.589192 -81.362941 -1.114377 31.569982 14.511432 -19.615593 -2.492612 0.602884 0.279254 -12.344333 10.746238 -12.960129 -2.317600 -7.125000 0.000000 0.000000 -11.854300 16.820300 8.093300 0.570989 9.339950 3.362114 78.911638 -5.246239 15.554936 -16.036657 20.024950 -4.494085 1.282190 1.941362 -0.634922 7.488505 -43.812444 -4.487100 7.125000 0.000000 0.000000 60.478200 -66.232900 -36.260700 
6.766298 18.060064 -2.996208 -0.611740 2.924570 2.365452 -2.414384 -4.007965 -1.448472 -5.045891 6.028608 -12.711259 0.788398 8.386037 21.722567 1.197631 -5.170444 2.155432 1.431900 7.566100 21.403600 -1.230212 3.231616 -4.550934 23.101937 0.939648 9.113199 0.863910 -1.778943 1.443811 0.908772 -20.778326 -27.940048 -0.166000 -2.624500 7.235100 6.116878 0.605120 4.708157 1.683664 0.676211 -3.436165 -3.999191 0.677461 2.648153 -4.210201 -3.753514 -6.571947 2.360797 -4.915594 27.388725 0.624600 -2.172400 6.213500 -0.490984 -8.450479 2.589085 -81.440523 -0.991579 31.573032 14.297107 -19.335884 -2.424782 0.598081 0.290055 -12.426775 10.946047 -12.905143 -2.357200 -7.125000 0.000000 0.000000 -11.717800 16.852000 7.987700 0.565546 9.346415 3.368266 78.831546 -5.300748 15.648118 -16.658382 20.684158 -4.620333 1.391949 1.813777 -0.982683 3.639434 -42.362426 -1.576600 7.125000 0.000000 0.000000 53.997500 -66.502400 -31.686200 
6.753945 18.057791 -2.976543 -0.737067 2.878552 2.320467 -2.447821 -3.981351 -1.415508 -4.981546 5.395930 -11.959269 0.632221 8.040330 20.654840 1.156648 -4.810184 2.251755 1.500000 7.736000 21.915100 -1.230472 3.217658 -4.557466 23.249383 0.691055 9.088516 0.858817 -1.819756 1.530720 0.898694 -20.609548 -27.711373 -0.148000 -2.479000 6.831400 6.253491 0.603234 4.542806 1.723941 0.658603 -3.462773 -4.010565 0.666634 2.671524 -4.209979 -3.795787 -6.960719 2.330535 -4.950643 28.260938 0.598500 -2.180900 6.521200 -0.481070 -8.443138 2.589203 -81.516169 -0.875344 31.567560 14.068452 -19.036586 -2.353463 0.593336 0.300360 -12.479029 11.129150 -12.845570 -2.391800 -7.125000 0.000000 0.000000 -11.592700 16.889200 7.889100 0.561920 9.355392 3.373090 78.758281 -5.367475 15.755091 -17.208105 21.234569 -4.693553 1.512579 1.629550 -0.897155 -0.488018 -40.159154 1.326600 7.125000 0.000000 0.000000 45.793800 -66.181900 -25.641200 
